<?xml version="1.0" encoding="UTF-8"?>
<svg xmlns="http://www.w3.org/2000/svg" id="Calque_1" data-name="Calque 1" viewBox="0 0 100.05 84.52">
  <defs>
    <style>
      .cls-1 {
        fill: #92d1db;
      }

      .cls-2 {
        fill: #fbd9bd;
      }

      .cls-3 {
        fill: #fff;
      }

      .cls-4 {
        fill: #321010;
        stroke: #fff;
        stroke-miterlimit: 10;
        stroke-width: 6px;
      }

      .cls-5 {
        fill: #e4a943;
      }
    </style>
  </defs>
  <g>
    <path class="cls-4" d="M47.38,14.36c1.98-2.17,6.08-7.58,16.08-9.32,1.91-.33,14.37-2.27,24.22,5.66,2.63,2.11,4.7,4.67,6.22,7.42,6.24,11.29,2.62,24.98-5.6,35.38-3.04,3.85-8.6,8.39-19.84,17.41-1.15.92-3.16,2.51-6,4.29-1.25.79-3.56,2.24-6.77,3.74-1.87.88-4.22,1.85-7,2.72"></path>
    <path class="cls-4" d="M49.74,15.5c-.86-1.44-6.04-9.78-16.51-11.98-8.8-1.85-17.11,1.52-22.36,6.53-2.38,2.27-4.23,4.99-5.57,7.9-7.47,16.32,5.52,35.69,6.25,36.77,5.05,7.38,11.06,11.39,20.43,17.64,6.57,4.38,12.46,7.37,16.7,9.31"></path>
  </g>
  <g id="C_de_café" data-name="C de café">
    <path class="cls-2" d="M63.22,22.96v10.4c.25.03.86.14,1.39.65.98.95.75,2.42.73,2.53h4.76c0-7.41-3.07-13.43-6.88-13.58Z"></path>
    <path class="cls-5" d="M56,37.45h4.97c0-.11,0-.23,0-.34,0-.76,0-1.68.4-2.46.14-.27.45-.77,1.13-1.19v-10.51c-3.54,0-6.42,6.47-6.49,14.5Z"></path>
    <path class="cls-5" d="M62.44,53.7l.05-11.66c.02.11.04.23,0,.26-.13.08-.77-.74-1.13-1.53-.2-.44-.47-1.24-.43-2.37-1.63,0-3.25,0-4.88,0-.03,8.3,2.82,15.09,6.4,15.3Z"></path>
    <path class="cls-1" d="M63.22,53.69c0-3.7-.02-7.41-.03-11.11.28-.13.78-.4,1.22-.97.66-.86.7-1.82.71-2.13l4.93-.02c-.02,7.74-3.06,14.05-6.83,14.23Z"></path>
    <path class="cls-3" d="M57.93,35.8c-.96-.37-.81-3.73,0-6.15.22-.67.44-1.08.77-1.74.71-1.39,1.13-2.18,1.89-2.32.3-.06.8-.05.98.24.26.43-.45,1.07-1.26,2.67-.27.52-.72,1.49-1.05,2.73-.34,1.28-.52,1.92-.45,2.66.07.72.28,1.28-.04,1.65-.19.21-.56.36-.84.26Z"></path>
    <path class="cls-3" d="M68.05,32.92c.7-.52-.04-3.39-1.14-5.3-.3-.53-.55-.84-.94-1.33-.83-1.04-1.31-1.63-1.95-1.6-.25.01-.66.13-.74.42-.13.43.56.83,1.51,2.03.31.39.85,1.13,1.35,2.13.51,1.03.77,1.54.85,2.19.08.64,0,1.17.34,1.41.19.14.52.19.72.04Z"></path>
  </g>
  <g>
    <g>
      <path class="cls-1" d="M40.99,37.98v5.73c.08,0,.16,0,.25,0,1.44,0,2.61.79,2.61,1.76h7.53c0-4.08-4.63-7.4-10.38-7.48Z"></path>
      <path class="cls-2" d="M51.37,46.31l-7.91-.04c.09-.03.19-.05.25,0,.17.16-.1.89-.42,1.3-.67.86-1.94.76-2.26.73-.01,1.79-.03,3.59-.04,5.38,5.63.03,10.24-3.25,10.38-7.37Z"></path>
    </g>
    <path class="cls-2" d="M40.9,22.29v5.74c.08,0,.16,0,.24,0,1.43,0,2.59.79,2.59,1.76h7.47c0-4.09-4.59-7.41-10.3-7.5Z"></path>
    <path class="cls-1" d="M51.22,30.78l-7.79-.04c.06,0,.14,0,.19.05.16.2-.24.98-.75,1.38-.69.54-1.55.38-1.83.31-.01,1.54-.02,3.08-.04,4.62,5.55.03,10.08-2.79,10.22-6.32Z"></path>
    <path class="cls-3" d="M42.08,23.46c.52-.68,3.07.26,4.73,1.5.46.34.73.62,1.15,1.05.9.91,1.4,1.44,1.33,2.09-.03.26-.16.66-.42.73-.39.11-.72-.62-1.75-1.67-.34-.34-.97-.94-1.85-1.51-.9-.59-1.35-.88-1.94-1.01-.57-.12-1.06-.08-1.26-.43-.12-.2-.15-.54,0-.74Z"></path>
    <path class="cls-3" d="M42.5,39.21c.52-.68,3.07.26,4.73,1.5.46.34.73.62,1.15,1.05.9.91,1.4,1.44,1.33,2.09-.03.26-.16.66-.42.73-.39.11-.72-.62-1.75-1.67-.34-.34-.97-.94-1.85-1.51-.9-.59-1.35-.88-1.94-1.01-.57-.12-1.06-.08-1.26-.43-.12-.2-.15-.54,0-.74Z"></path>
  </g>
  <g id="Bde_bakery" data-name="Bde bakery">
    <path class="cls-5" d="M25.61,38.42v5.82c.08,0,.17,0,.25,0,1.49,0,2.7.8,2.7,1.79h7.79c0-4.14-4.79-7.51-10.74-7.6Z"></path>
    <path class="cls-1" d="M36.35,46.96l-8.2-.04c.13-.04.28-.07.35,0,.17.2-.31,1.08-.95,1.58-.7.54-1.5.56-1.92.53-.01,1.86-.03,3.72-.04,5.59,5.84.03,10.62-3.38,10.77-7.65Z"></path>
    <path class="cls-1" d="M25.54,22.19v6.02c.08,0,.17,0,.25,0,1.48,0,2.69.83,2.69,1.85h7.74c0-4.29-4.76-7.78-10.68-7.87Z"></path>
    <path class="cls-5" d="M36.23,30.98c-2.61-.01-5.22-.03-7.82-.04-.09.26-.28.7-.69,1.08-.82.78-1.85.73-2.07.72l-.04,4.78c5.76.03,10.47-2.88,10.61-6.53Z"></path>
    <path class="cls-3" d="M27.69,23.4c.53-.71,3.17.27,4.89,1.55.47.35.75.64,1.19,1.08.92.94,1.45,1.49,1.38,2.16-.03.27-.16.68-.43.76-.41.11-.74-.64-1.81-1.72-.35-.35-1.01-.97-1.91-1.56-.93-.61-1.4-.91-2-1.04-.59-.13-1.09-.09-1.3-.45-.12-.21-.15-.56,0-.77Z"></path>
    <path class="cls-3" d="M27.69,39.56c.53-.71,3.17.27,4.89,1.55.47.35.75.64,1.19,1.08.92.94,1.45,1.49,1.38,2.16-.03.27-.16.68-.43.76-.41.11-.74-.64-1.81-1.72-.35-.35-1.01-.97-1.91-1.56-.93-.61-1.4-.91-2-1.04-.59-.13-1.09-.09-1.3-.45-.12-.21-.15-.56,0-.77Z"></path>
  </g>
  <path id="couronne-etoile" class="cls-3" d="M57.07,21.46c.23-.08.46-.15.69-.21,1.06-.27,2.46-.08,3.3.65.2.17.7.46,1.13.73,1.07-2.09,5.18-1.93,6.16.48.35.86.58,1.72.72,2.56l3.86,1.35-3.83-4.96,4.16-4.38-6.53,1.32-3.83-4.96-.21,5.77-6.53,1.32.9.32Z"></path>
</svg>
