<?xml version="1.0" encoding="UTF-8"?>
<svg xmlns="http://www.w3.org/2000/svg" id="Calque_1" data-name="Calque 1" viewBox="0 0 135 127.91">
  <defs>
    <style>
      .cls-1 {
        fill: #92d1db;
      }

      .cls-2 {
        fill: #fbd9bd;
      }

      .cls-3 {
        fill: #b1b1b1;
      }

      .cls-4 {
        fill: #fff;
      }

      .cls-5 {
        stroke-width: 4px;
      }

      .cls-5, .cls-6, .cls-7 {
        fill: #252220;
        stroke: #fff;
        stroke-miterlimit: 10;
      }

      .cls-8 {
        fill: #ff6e48;
      }

      .cls-6 {
        stroke-width: 3px;
      }

      .cls-7 {
        stroke-width: .25px;
      }

      .cls-9 {
        fill: #feca61;
      }
    </style>
  </defs>
  <path id="colombage7" class="cls-4" d="M4.26,40.74c17.88-11.74,30.85-19.33,48.73-31.07.72-.33,3.53-3.5,5.23-3.5,0,0,2.06,1.86,3.97,2.69,2.19.96,17.27,9.86,47.31,30.21.62.02-66.65,1.67-105.24,1.67Z"></path>
  <g>
    <rect class="cls-4" x="17.55" y="35.76" width="82.05" height="29.9" rx="8.66" ry="8.66"></rect>
    <g>
      <g>
        <g id="toiture-complète">
          <path id="colombage4" class="cls-8" d="M96.46,40.92c.83.93,1.67,1.86,2.5,2.79.25.28.39.62.39.95v19.64c0,.94-1.03,1.71-2.32,1.75-.83.02-1.67.05-2.5.07-1.37.04-2.52-.76-2.52-1.75v-22.5c0-1.75,3.14-2.42,4.45-.95Z"></path>
          <g>
            <path id="structure-toit" class="cls-8" d="M.91,36.35C3.27,33.36,48.91,4.73,55.24.76c.81-.37,2.08-.82,3.63-.75,1.89.08,3.57,1.08,4.01,1.35,10.14,6.29,21.8,13.76,21.8,13.76-.09-.65-.33-2.93,1.09-4.25.35-.33,1.04-.81,5.17-.78,5.57.05,6.38.94,6.65,1.29.66.87.67,1.97.6,2.69-.05,3.04-.1,6.07-.15,9.11,6.33,4.39,12.67,8.78,19,13.17.7,1.22.76,2.54,0,3.35-.56.6-1.44.78-2.08.91,0,0-1.46.29-2.95,0-2.12-.42-23.9-14.59-53.14-34.44C40.87,17.69,22.89,29.22,4.9,40.74c-.14.06-1.75.75-3.3,0-.16-.08-1.27-.63-1.56-1.7,0,0-.32-1.18.87-2.69Z"></path>
            <path id="colombage5" class="cls-8" d="M53.71,16.4c0-.49.14-.96.38-1.39.37-.64.92-1.41,1.69-1.99,1.9-1.42,3.68-.59,4.07-.39.82.42,1.45,1.08,1.9,1.68.37.49.57,1.09.57,1.71v46.79c0,1.5-1.16,2.74-2.67,2.85l-3.5.25c-1.68.12-3.1-1.22-3.07-2.89.21-15.54.42-31.08.64-46.62Z"></path>
            <path id="colombage5-2" data-name="colombage5" class="cls-8" d="M17.07,40.79c-.27.58-.39,1.11-.45,1.47v21.55c0,1.2.76,2.17,1.72,2.21,1.1.04,2.2.08,3.31.12.99.03,1.81-.94,1.82-2.17.1-7.48.81-21.76.37-26.78-.03-.3-.09-1.08-.56-1.35-.53-.3-1.04.36-4.05,2.6,0,0-1.62,1.21-2.16,2.36Z"></path>
            <path id="colombage3" class="cls-8" d="M81.19,28.31c1.22,1.34,2.43,2.68,3.65,4.02.4.44.64,1.2.64,2.01v29.24c0,1.29-.6,2.35-1.35,2.39-1.1.05-2.19.11-3.29.16-.77.04-1.42-1.02-1.43-2.35-.12-11.14-.24-22.28-.36-33.42-.02-1.91,1.21-3.09,2.14-2.06Z"></path>
            <path id="colombage2" class="cls-8" d="M70.52,20.15c.98,1,1.96,2,2.93,3,.51.52.81,1.34.81,2.21v37.88c0,1.48-.85,2.69-1.93,2.75-.85.05-1.7.09-2.55.14-1.13.06-2.08-1.17-2.1-2.72-.13-13.67-.26-27.35-.39-41.02-.02-2.28,1.88-3.61,3.22-2.24Z"></path>
          </g>
        </g>
        <path id="colombage6" class="cls-8" d="M34.26,28.49c-1.11,1.08-2.22,2.16-3.33,3.25-.47.46-.76,1.24-.76,2.09v26.42c0,1.35.72,2.45,1.62,2.49.99.04,1.98.09,2.97.13.93.04,1.7-1.06,1.72-2.45l.36-29.79c.02-2-1.46-3.23-2.59-2.13Z"></path>
      </g>
      <path id="colombage2-2" data-name="colombage2" class="cls-8" d="M46.36,19.85c-.98,1-1.95,2-2.93,3-.51.52-.81,1.34-.81,2.21v37.88c0,1.48.85,2.69,1.93,2.75.85.05,1.7.09,2.54.14,1.13.06,2.08-1.17,2.09-2.72.13-13.67.26-27.35.39-41.02.02-2.28-1.88-3.61-3.22-2.24Z"></path>
    </g>
  </g>
  <g id="coeur-logo">
    <g>
      <path class="cls-5" d="M74.05,48.28c2.35-2.5,7.21-8.75,19.08-10.76,2.27-.38,17.05-2.62,28.74,6.53,3.12,2.44,5.58,5.39,7.38,8.57,7.41,13.04,3.11,28.85-6.65,40.85-3.61,4.44-10.21,9.69-23.55,20.11-1.37,1.07-3.75,2.89-7.12,4.96-1.49.91-4.22,2.58-8.03,4.32-2.22,1.01-5.01,2.13-8.3,3.14"></path>
      <path class="cls-6" d="M76.86,49.6c-1.03-1.67-7.16-11.3-19.59-13.84-10.44-2.14-20.3,1.75-26.53,7.54-2.82,2.62-5.02,5.76-6.61,9.13-8.87,18.84,6.55,41.22,7.42,42.46,6,8.52,13.13,13.15,24.25,20.37,7.8,5.06,14.78,8.51,19.81,10.75"></path>
    </g>
    <g id="akery">
      <path class="cls-4" d="M67.96,57.58l3.41,8.83h-2.52c.14-.65.18-1.51.01-2.44h-3.99c-.01.74.1,1.55.39,2.44h-2.23c.24-4.79,1.97-7.32,4.92-8.83ZM68.46,62.78l-1.14-2.94c-1.13.53-1.97,1.53-2.28,2.94h3.42Z"></path>
      <path class="cls-4" d="M72.9,62.32v-.44c0-1.68-.33-3.37-.66-4.1h2.6c-.29.63-.58,1.96-.64,3.4.92-1.98,3.07-3.52,5.49-3.6l-.21,1.83c-.85.03-1.65.22-2.37.53,1.38,2.09,2.19,4.97,3.08,6.47h-2.6c.24-2.45-.75-4.51-1.69-5.78-1.05.77-1.72,1.81-1.72,2.75-.01,1.28.31,2.45.66,3.03h-2.6c.33-.78.66-2.41.66-4.1Z"></path>
      <path class="cls-4" d="M81.79,62.32v-.44c0-1.68-.33-3.37-.66-4.1h5.99l.31,1.84c-.67-.21-1.94-.34-3.15-.34h-1.14c-.04.57-.07,1.23-.08,1.96.94-.01,2.54-.04,3.59-.14v1.45c-1.02-.1-2.64-.16-3.59-.16.01.9.07,1.76.12,2.53h.72c1.86,0,3.11-.13,3.71-.42l-.33,1.92h-6.16c.33-.78.66-2.41.66-4.1Z"></path>
      <path class="cls-4" d="M89.62,62.32v-.44c0-1.68-.33-3.37-.66-4.1h4.3c2.28,0,3.17,1.08,3.17,2.62,0,1.34-.94,2.32-2.24,2.62.52,1.23,1.18,2.11,2.35,2.11.22,0,.45-.04.62-.12.12.85-.41,1.59-1.32,1.59-1.53,0-2.29-1.37-3.08-3.52-.66-.05-1.31-.23-1.85-.52.03,1.6.35,3.1.68,3.85h-2.62c.33-.78.66-2.41.66-4.1ZM90.96,59.29c-.03.63-.05,1.34-.05,2.11.39.27,1.28.55,2.29.55,1.19,0,1.84-.52,1.84-1.41,0-.8-.51-1.25-1.78-1.25h-2.29Z"></path>
      <path class="cls-4" d="M100.31,63.66l-1.72-3.03c-.56-.99-1.32-2.2-1.89-2.86h2.66c-.01.87.37,2.2.96,3.2l.87,1.51c1.02-1.07,1.97-2.83,1.82-4.71h2.27c-.47,1.73-2.43,4.8-3.55,5.95.12,1.13.35,2.13.59,2.69h-2.6c.24-.57.47-1.59.59-2.75Z"></path>
    </g>
    <g id="liss">
      <path class="cls-4" d="M62.54,82.72v-.5c0-1.88-.37-3.77-.73-4.59h2.91c-.4.91-.73,2.78-.73,4.85,0,1.18.09,2.23.21,3.14h.59c2.03,0,3.3-.22,3.99-.57l-.37,2.25h-6.59c.37-.88.73-2.7.73-4.59Z"></path>
      <path class="cls-4" d="M70.66,82.72v-.5c0-1.88-.37-3.77-.73-4.59h2.91c-.35.82-.73,2.7-.73,4.59v.5c0,1.88.37,3.71.73,4.59h-2.91c.37-.88.73-2.7.73-4.59Z"></path>
      <path class="cls-4" d="M73.98,84.78c.76.63,2.16.99,3.44.99,1.2,0,2.01-.38,2.01-1.3,0-1.94-5.33-1.01-5.33-4.34,0-1.64,1.44-2.72,3.76-2.72.98,0,2,.1,3.11.39l-.15,2.07c-.84-.47-2.04-.72-3.14-.72s-1.86.41-1.86,1.11c0,1.86,5.33.85,5.33,4.29,0,1.78-1.35,2.95-3.54,2.95-2.36,0-3.79-1.08-3.63-2.75Z"></path>
      <path class="cls-4" d="M82.27,84.78c.76.63,2.16.99,3.44.99,1.2,0,2.01-.38,2.01-1.3,0-1.94-5.33-1.01-5.33-4.34,0-1.64,1.44-2.72,3.76-2.72.98,0,2,.1,3.11.39l-.15,2.07c-.84-.47-2.04-.72-3.14-.72s-1.86.41-1.86,1.11c0,1.86,5.33.85,5.33,4.29,0,1.78-1.35,2.95-3.54,2.95-2.36,0-3.79-1.08-3.63-2.75Z"></path>
    </g>
    <g id="café">
      <path class="cls-4" d="M62.98,106.56c0-1.88,1.65-2.52,3.17-2.52.84,0,1.7.23,2.25.47v-.19c0-1.29-.68-1.56-2.12-1.56-1.08,0-2.3.26-2.94.58l.37-2.03c.89-.21,1.83-.31,2.76-.31,2.51,0,3.46.63,3.46,3.02v1.16c0,1.61.45,3.04.87,3.6h-2.38v-1.38c-.44,1.09-1.49,1.67-2.7,1.67-1.47,0-2.75-.82-2.75-2.51ZM68.39,106.03v-.39c-.44-.23-1.2-.42-2.09-.42-1,0-1.71.34-1.71,1.06,0,.64.63,1.06,1.68,1.06,1.21,0,2.07-.5,2.12-1.32Z"></path>
      <path class="cls-4" d="M72.79,103.41v-.51c-.52.02-1.03.05-1.52.16v-1.79h1.36c-.73-.55-1.2-1.29-1.2-2.04,0-1.22.99-1.96,2.57-1.96,1.07,0,1.97.23,2.47.43l-.06,2.24c-.71-.51-1.67-.77-2.36-.77-.58,0-.99.26-.99.8,0,.51.45,1.06.92,1.3h2.23l.13,1.93c-.52-.14-1.29-.26-1.99-.29v.5c0,2.8.48,4.74.86,5.37h-3.27c.37-.63.84-2.57.84-5.37Z"></path>
      <path class="cls-4" d="M77.03,105.03c0-2.43,1.58-4.04,3.64-4.04,2.17,0,3.6,1.62,3.31,4.42h-5.4c.16,1.21,1.08,1.87,2.75,1.87,1.08,0,2-.34,2.6-.84.18,1.14-.68,2.62-2.97,2.62s-3.93-1.61-3.93-4.04ZM78.69,104.29h3.81c-.16-1.03-.78-1.56-1.84-1.56s-1.73.61-1.97,1.56ZM81.28,96.54l1.75,1.67c-1.07,1.05-2.44,1.7-3.78,1.93.7-.88,1.5-2.36,2.04-3.6Z"></path>
    </g>
    <g id="C_de_café" data-name="C de café">
      <path class="cls-2" d="M55.7,91.84v6.22c.16.02.53.08.85.39.6.57.46,1.45.45,1.51h2.92c0-4.43-1.88-8.03-4.23-8.12Z"></path>
      <path class="cls-9" d="M51.26,100.51h3.05c0-.07,0-.14,0-.2,0-.46,0-1,.25-1.47.09-.16.28-.46.69-.71v-6.29c-2.18,0-3.94,3.87-3.99,8.67Z"></path>
      <path class="cls-9" d="M55.22,110.22l.03-6.97c.01.06.03.14,0,.15-.08.05-.48-.44-.7-.92-.12-.27-.29-.74-.26-1.42-1,0-2,0-3,0-.02,4.97,1.73,9.02,3.93,9.15Z"></path>
      <path class="cls-1" d="M55.7,110.22c0-2.21-.01-4.43-.02-6.64.17-.08.48-.24.75-.58.4-.52.43-1.09.43-1.27h3.03c0,4.62-1.88,8.39-4.2,8.49Z"></path>
      <path class="cls-4" d="M52.44,99.52c-.59-.22-.5-2.23,0-3.68.14-.4.27-.65.47-1.04.44-.83.69-1.3,1.16-1.39.19-.04.49-.03.6.14.16.26-.27.64-.77,1.6-.16.31-.44.89-.64,1.64-.21.77-.32,1.15-.28,1.59.04.43.17.77-.02.99-.11.13-.34.22-.52.15Z"></path>
      <path class="cls-4" d="M58.66,97.79c.43-.31-.02-2.03-.7-3.17-.19-.32-.34-.5-.58-.8-.51-.62-.81-.98-1.2-.96-.16,0-.4.08-.46.25-.08.25.34.5.93,1.22.19.24.52.68.83,1.27.32.62.47.92.52,1.31.05.38,0,.7.21.84.12.09.32.12.45.02Z"></path>
    </g>
    <g>
      <g>
        <path class="cls-1" d="M52.46,78.35v3.56c.05,0,.1,0,.16,0,.92,0,1.67.49,1.67,1.09h4.81c0-2.54-2.96-4.6-6.63-4.65Z"></path>
        <path class="cls-2" d="M59.09,83.52l-5.05-.03c.06-.02.12-.03.16,0,.11.1-.07.56-.27.81-.43.53-1.24.47-1.44.45,0,1.11-.02,2.23-.03,3.34,3.6.02,6.54-2.02,6.63-4.58Z"></path>
      </g>
      <path class="cls-2" d="M52.41,68.6v3.57c.05,0,.1,0,.16,0,.91,0,1.65.49,1.65,1.1h4.77c0-2.54-2.93-4.61-6.58-4.66Z"></path>
      <path class="cls-1" d="M58.99,73.87l-4.97-.03s.09,0,.12.03c.1.12-.15.61-.48.86-.44.33-.99.23-1.17.19,0,.96-.02,1.92-.02,2.87,3.54.02,6.43-1.73,6.52-3.93Z"></path>
      <path class="cls-4" d="M53.16,69.33c.33-.42,1.96.16,3.02.93.29.21.47.38.73.65.57.57.89.9.85,1.3-.02.16-.1.41-.27.45-.25.07-.46-.39-1.12-1.04-.22-.21-.62-.59-1.18-.94-.58-.37-.86-.55-1.24-.63-.36-.08-.67-.05-.8-.27-.08-.13-.09-.34,0-.46Z"></path>
      <path class="cls-4" d="M53.42,79.12c.33-.42,1.96.16,3.02.93.29.21.47.38.73.65.57.57.89.9.85,1.3-.02.16-.1.41-.27.45-.25.07-.46-.39-1.12-1.04-.22-.21-.62-.59-1.18-.94-.58-.37-.86-.55-1.24-.63-.36-.08-.67-.05-.8-.27-.08-.13-.09-.34,0-.46Z"></path>
    </g>
    <g id="Bde_bakery" data-name="Bde bakery">
      <path class="cls-9" d="M52.42,56.11v3.55c.05,0,.11,0,.16,0,.94,0,1.7.49,1.7,1.09h4.89c0-2.53-3.01-4.59-6.74-4.64Z"></path>
      <path class="cls-1" d="M59.16,61.32l-5.15-.03c.08-.03.18-.05.22,0,.11.12-.19.66-.6.96-.44.33-.94.34-1.21.32,0,1.14-.02,2.27-.03,3.41,3.67.02,6.66-2.07,6.76-4.67Z"></path>
      <path class="cls-1" d="M52.37,46.19v3.68c.05,0,.1,0,.16,0,.93,0,1.69.51,1.69,1.13h4.86c0-2.62-2.99-4.75-6.71-4.8Z"></path>
      <path class="cls-9" d="M59.08,51.56c-1.64,0-3.27-.02-4.91-.03-.06.16-.18.42-.43.66-.51.47-1.16.45-1.3.44l-.02,2.92c3.62.02,6.57-1.76,6.66-3.99Z"></path>
      <path class="cls-4" d="M53.72,46.93c.33-.43,1.99.16,3.07.94.3.22.47.39.75.66.58.57.91.91.86,1.32-.02.16-.1.42-.27.46-.25.07-.47-.39-1.14-1.05-.22-.22-.63-.59-1.2-.96-.58-.37-.88-.56-1.26-.64-.37-.08-.68-.05-.82-.27-.08-.13-.09-.34,0-.47Z"></path>
      <path class="cls-4" d="M53.72,56.8c.33-.43,1.99.16,3.07.94.3.22.47.39.75.66.58.57.91.91.86,1.32-.02.16-.1.42-.27.46-.25.07-.47-.39-1.14-1.05-.22-.22-.63-.59-1.2-.96-.58-.37-.88-.56-1.26-.64-.37-.08-.68-.05-.82-.27-.08-.13-.09-.34,0-.47Z"></path>
    </g>
    <path id="couronne-etoile" class="cls-4" d="M61.65,59.36c.11-.12.22-.23.34-.34.53-.5,1.41-.84,2.14-.7.17.03.56.03.91.05-.07-1.53,2.38-2.77,3.75-1.72.49.38.91.79,1.27,1.22l2.7-.48-3.88-1.58.97-3.83-3.37,2.86-3.88-1.58,1.8,3.34-3.37,2.86.63-.11Z"></path>
    <g id="moitié_donut" data-name="moitié donut">
      <g id="moitié-donut">
        <path class="cls-1" d="M49.22,47.79v14.06c-.16-.01-.33-.02-.49-.02-2.9,0-5.24,1.93-5.24,4.32h-15.11c0-10.01,9.29-18.15,20.85-18.35Z"></path>
        <path class="cls-7" d="M28.38,68.22l15.88-.11c-.18-.08-.38-.13-.5,0-.35.39.21,2.2.84,3.19,1.34,2.1,3.89,1.87,4.54,1.79.03,4.4.05,8.8.08,13.21-11.31.07-20.55-7.99-20.84-18.08Z"></path>
      </g>
      <g id="glacage_donut" data-name="glacage donut">
        <path class="cls-4" d="M49.52,61.5v-13.51c-2.03-.15-6.77-.2-11.69,2.67-1.75,1.02-5.69,3.4-7.94,8.48-2.05,4.65-1.53,8.93-1.24,10.59.48.5.84,1.18,1.03,1.96.09-.18.19-.36.3-.53.8-1.2,2.44-1.99,3.77-1.4.91.41,1.45,1.34,1.7,2.28,1.07,3.9-1.72,8.25-.08,11.96.12.27.28.56.56.69.5.24,1.1-.13,1.4-.59.6-.94.45-2.15.15-3.21-.31-1.06-.76-2.12-.72-3.22.04-1.1.8-2.29,1.93-2.37,1.06-.07,1.95.86,2.22,1.85.27.99.09,2.05,0,3.07-.1,1.02-.09,2.13.49,2.99.58.86,1.94,1.28,2.73.61.61-.52.66-1.43.52-2.21-.14-.78-.41-1.56-.27-2.34.14-.78.92-1.52,1.69-1.28.93.29.94,1.55.77,2.48-.17.93-.17,2.18.75,2.49.76.25,1.46-.38,1.92-1.05v-10.08c-3.23,0-5.85-2.31-5.85-5.17s2.62-5.17,5.85-5.17Z"></path>
        <path class="cls-3" d="M49.77,61.5v-13.51c0-.14-.11-.24-.25-.25-4.71-.33-9.31.97-13.23,3.58-4.4,2.93-7.35,7.53-8.01,12.8-.17,1.4-.19,2.81-.05,4.21.04.43.07.88.17,1.29.07.29.24.43.42.68.31.44.5.93.64,1.45.05.2.36.25.46.06.67-1.3,2.24-2.51,3.76-1.82s1.79,2.6,1.8,4.03c.01,2.82-1.19,5.58-.78,8.42.13.89.49,2.7,1.72,2.56s1.62-1.57,1.6-2.57c-.03-1.58-.97-2.98-.99-4.56s1.62-3.21,3.04-1.77c2.08,2.11-1.01,6.23,1.92,7.94.84.49,2,.48,2.61-.37.87-1.21.01-2.66.02-3.96,0-.78.92-2.2,1.78-1.27.45.49.32,1.35.23,1.93-.13.89-.25,2.15.66,2.68.4.23.87.22,1.29.04s1.08-.72,1.2-1.18c.07-.27,0-.64,0-.91v-9.2c0-.14-.11-.25-.25-.25-2.75-.04-5.6-1.94-5.6-4.92s2.86-4.88,5.6-4.92c.32,0,.32-.5,0-.5-3.02.04-6.1,2.16-6.1,5.42s3.08,5.38,6.1,5.42l-.25-.25v8.24c0,.52.06,1.09,0,1.61-.11.96-1.76,1.58-2.16.43s.32-2.27-.05-3.39c-.32-.96-1.38-1.31-2.19-.68-1.19.93-.66,2.4-.46,3.64.11.68.1,1.58-.53,2.02s-1.61.12-2.11-.42c-1.17-1.26-.49-3.31-.47-4.82.02-1.2-.34-2.45-1.43-3.1-.96-.58-2.09-.28-2.75.59-.79,1.04-.68,2.33-.34,3.52.38,1.36,1.4,3.49.17,4.72-.98.98-1.51-.56-1.68-1.32-.16-.71-.19-1.44-.15-2.17.16-3.02,1.58-6.26.41-9.24-.49-1.24-1.53-2.23-2.93-2.14s-2.51,1.06-3.12,2.25l.46.06c-.16-.62-.41-1.21-.8-1.73-.29-.38-.31-.72-.37-1.19-.13-1.08-.16-2.17-.11-3.25.16-3.01,1.08-5.97,2.7-8.52,2.45-3.83,6.58-6.65,10.91-7.93,2.35-.7,4.81-.95,7.25-.77l-.25-.25v13.51c0,.32.5.32.5,0Z"></path>
      </g>
    </g>
  </g>
</svg>
